<svg width="21" height="21" viewBox="0 0 21 21" fill="none" xmlns="http://www.w3.org/2000/svg">
<path d="M16.835 4.88249H16.485L13.5275 1.92499C13.2913 1.68874 12.9063 1.68874 12.6613 1.92499C12.425 2.16124 12.425 2.54624 12.6613 2.79124L14.7525 4.88249H6.2475L8.33875 2.79124C8.575 2.55499 8.575 2.16999 8.33875 1.92499C8.1025 1.68874 7.7175 1.68874 7.4725 1.92499L4.52375 4.88249H4.17375C3.38625 4.88249 1.75 4.88249 1.75 7.12249C1.75 7.97124 1.925 8.53124 2.2925 8.89874C2.5025 9.11749 2.75625 9.23124 3.0275 9.29249C3.28125 9.35374 3.5525 9.36249 3.815 9.36249H17.185C17.4562 9.36249 17.71 9.34499 17.955 9.29249C18.69 9.11749 19.25 8.59249 19.25 7.12249C19.25 4.88249 17.6137 4.88249 16.835 4.88249Z" fill="white"/>
<path d="M16.6688 10.5H4.26132C3.71882 10.5 3.30757 10.9812 3.39507 11.515L4.13007 16.0125C4.37507 17.5175 5.03132 19.25 7.94507 19.25H12.8538C15.8026 19.25 16.3276 17.7713 16.6426 16.1175L17.5263 11.5412C17.6313 10.9987 17.2201 10.5 16.6688 10.5ZM9.28382 16.1438C9.28382 16.485 9.01258 16.7563 8.68007 16.7563C8.33882 16.7563 8.06758 16.485 8.06758 16.1438V13.2563C8.06758 12.9238 8.33882 12.6438 8.68007 12.6438C9.01258 12.6438 9.28382 12.9238 9.28382 13.2563V16.1438ZM13.0288 16.1438C13.0288 16.485 12.7576 16.7563 12.4163 16.7563C12.0838 16.7563 11.8038 16.485 11.8038 16.1438V13.2563C11.8038 12.9238 12.0838 12.6438 12.4163 12.6438C12.7576 12.6438 13.0288 12.9238 13.0288 13.2563V16.1438Z" fill="white"/>
</svg>
