<svg width="21" height="21" viewBox="0 0 21 21" fill="none" xmlns="http://www.w3.org/2000/svg">
<path d="M17.9375 14.6562H15.9688V12.6875C15.9688 12.3288 15.6712 12.0312 15.3125 12.0312C14.9538 12.0312 14.6562 12.3288 14.6562 12.6875V14.6562H12.6875C12.3288 14.6562 12.0312 14.9538 12.0312 15.3125C12.0312 15.6712 12.3288 15.9688 12.6875 15.9688H14.6562V17.9375C14.6562 18.2962 14.9538 18.5938 15.3125 18.5938C15.6712 18.5938 15.9688 18.2962 15.9688 17.9375V15.9688H17.9375C18.2962 15.9688 18.5938 15.6712 18.5938 15.3125C18.5938 14.9538 18.2962 14.6562 17.9375 14.6562Z" fill="white"/>
<path d="M19.25 7.455V3.4825C19.25 2.24875 18.69 1.75 17.2988 1.75H13.7637C12.3725 1.75 11.8125 2.24875 11.8125 3.4825V7.44625C11.8125 8.68875 12.3725 9.17875 13.7637 9.17875H17.2988C18.69 9.1875 19.25 8.68875 19.25 7.455Z" fill="white"/>
<path d="M9.1875 7.455V3.4825C9.1875 2.24875 8.6275 1.75 7.23625 1.75H3.70125C2.31 1.75 1.75 2.24875 1.75 3.4825V7.44625C1.75 8.68875 2.31 9.17875 3.70125 9.17875H7.23625C8.6275 9.1875 9.1875 8.68875 9.1875 7.455Z" fill="white"/>
<path d="M9.1875 17.2988V13.7637C9.1875 12.3725 8.6275 11.8125 7.23625 11.8125H3.70125C2.31 11.8125 1.75 12.3725 1.75 13.7637V17.2988C1.75 18.69 2.31 19.25 3.70125 19.25H7.23625C8.6275 19.25 9.1875 18.69 9.1875 17.2988Z" fill="white"/>
</svg>
