<svg width="21" height="21" viewBox="0 0 21 21" fill="none" xmlns="http://www.w3.org/2000/svg">
<path d="M13.6324 10.4999C13.6324 12.2324 12.2324 13.6324 10.4999 13.6324C8.76743 13.6324 7.36743 12.2324 7.36743 10.4999C7.36743 8.76743 8.76743 7.36743 10.4999 7.36743C12.2324 7.36743 13.6324 8.76743 13.6324 10.4999Z" stroke="#0F6EFF" stroke-width="1.5" stroke-linecap="round" stroke-linejoin="round"/>
<path d="M10.5001 17.7361C13.5889 17.7361 16.4676 15.9161 18.4714 12.7661C19.2589 11.5324 19.2589 9.45863 18.4714 8.22488C16.4676 5.07488 13.5889 3.25488 10.5001 3.25488C7.41136 3.25488 4.53261 5.07488 2.52886 8.22488C1.74136 9.45863 1.74136 11.5324 2.52886 12.7661C4.53261 15.9161 7.41136 17.7361 10.5001 17.7361Z" stroke="#0F6EFF" stroke-width="1.5" stroke-linecap="round" stroke-linejoin="round"/>
</svg>
