<svg width="24" height="24" viewBox="0 0 24 24" fill="none" xmlns="http://www.w3.org/2000/svg">
<path d="M0.800049 12L0.103691 11.7215C0.0321681 11.9003 0.0321681 12.0997 0.103691 12.2785L0.800049 12ZM23.2001 12L23.8964 12.2785C23.9679 12.0997 23.9679 11.9003 23.8964 11.7215L23.2001 12ZM12 19.25C8.27901 19.25 5.66672 17.3974 3.95751 15.4983C3.10238 14.5481 2.48284 13.5954 2.07756 12.8802C1.87535 12.5234 1.72764 12.2277 1.63157 12.0239C1.58356 11.9221 1.54853 11.8434 1.52611 11.7916C1.5149 11.7658 1.50685 11.7467 1.50191 11.7348C1.49945 11.7289 1.49776 11.7248 1.49684 11.7225C1.49638 11.7214 1.49612 11.7207 1.49605 11.7206C1.49601 11.7205 1.49602 11.7205 1.49608 11.7206C1.49611 11.7207 1.49619 11.7209 1.49621 11.721C1.4963 11.7212 1.49641 11.7215 0.800049 12C0.103691 12.2785 0.10382 12.2789 0.103962 12.2792C0.104026 12.2794 0.104181 12.2798 0.104309 12.2801C0.104564 12.2807 0.10487 12.2815 0.105225 12.2824C0.105936 12.2841 0.106846 12.2864 0.107957 12.2891C0.110178 12.2945 0.113201 12.3019 0.117032 12.3111C0.124693 12.3295 0.135589 12.3553 0.149772 12.388C0.178131 12.4535 0.219663 12.5466 0.274778 12.6636C0.384952 12.8973 0.549746 13.2266 0.772528 13.6198C1.21725 14.4046 1.8977 15.4519 2.84257 16.5017C4.73334 18.6026 7.72104 20.75 12 20.75V19.25ZM0.800049 12C1.49641 12.2785 1.4963 12.2788 1.49621 12.279C1.49619 12.2791 1.49611 12.2793 1.49608 12.2794C1.49602 12.2795 1.49601 12.2795 1.49605 12.2794C1.49612 12.2793 1.49638 12.2786 1.49684 12.2775C1.49776 12.2752 1.49945 12.2711 1.50191 12.2652C1.50685 12.2533 1.5149 12.2342 1.52611 12.2084C1.54853 12.1566 1.58356 12.0779 1.63157 11.9761C1.72764 11.7723 1.87535 11.4766 2.07756 11.1198C2.48284 10.4046 3.10238 9.45187 3.95751 8.50172C5.66672 6.60259 8.27901 4.75 12 4.75V3.25C7.72104 3.25 4.73334 5.3974 2.84257 7.49828C1.8977 8.54813 1.21725 9.59544 0.772528 10.3802C0.549746 10.7734 0.384952 11.1027 0.274778 11.3364C0.219663 11.4533 0.178131 11.5465 0.149772 11.612C0.135589 11.6447 0.124693 11.6705 0.117032 11.6889C0.113201 11.6981 0.110178 11.7055 0.107957 11.7109C0.106846 11.7136 0.105936 11.7159 0.105225 11.7176C0.10487 11.7185 0.104564 11.7193 0.104309 11.7199C0.104181 11.7202 0.104026 11.7206 0.103962 11.7208C0.10382 11.7211 0.103691 11.7215 0.800049 12ZM12 4.75C15.721 4.75 18.3333 6.6026 20.0426 8.50172C20.8977 9.45187 21.5172 10.4046 21.9225 11.1198C22.1247 11.4766 22.2725 11.7723 22.3685 11.9761C22.4165 12.0779 22.4516 12.1566 22.474 12.2084C22.4852 12.2342 22.4933 12.2533 22.4982 12.2652C22.5007 12.2711 22.5023 12.2752 22.5033 12.2775C22.5037 12.2786 22.504 12.2793 22.5041 12.2794C22.5041 12.2795 22.5041 12.2795 22.504 12.2794C22.504 12.2793 22.5039 12.2791 22.5039 12.279C22.5038 12.2788 22.5037 12.2785 23.2001 12C23.8964 11.7215 23.8963 11.7211 23.8961 11.7208C23.8961 11.7206 23.8959 11.7202 23.8958 11.7199C23.8955 11.7193 23.8952 11.7185 23.8949 11.7176C23.8942 11.7159 23.8933 11.7136 23.8921 11.7109C23.8899 11.7055 23.8869 11.6981 23.8831 11.6889C23.8754 11.6705 23.8645 11.6447 23.8503 11.6119C23.822 11.5465 23.7804 11.4533 23.7253 11.3364C23.6151 11.1027 23.4503 10.7734 23.2276 10.3802C22.7828 9.59544 22.1024 8.54813 21.1575 7.49827C19.2667 5.3974 16.279 3.25 12 3.25V4.75ZM23.2001 12C22.5037 11.7215 22.5038 11.7212 22.5039 11.721C22.5039 11.7209 22.504 11.7207 22.504 11.7206C22.5041 11.7205 22.5041 11.7205 22.5041 11.7206C22.504 11.7207 22.5037 11.7214 22.5033 11.7225C22.5023 11.7248 22.5007 11.7289 22.4982 11.7348C22.4933 11.7467 22.4852 11.7658 22.474 11.7916C22.4516 11.8434 22.4165 11.9221 22.3685 12.0239C22.2725 12.2277 22.1247 12.5234 21.9225 12.8802C21.5172 13.5954 20.8977 14.5481 20.0426 15.4983C18.3333 17.3974 15.721 19.25 12 19.25V20.75C16.279 20.75 19.2667 18.6026 21.1575 16.5017C22.1024 15.4519 22.7828 14.4046 23.2276 13.6198C23.4503 13.2266 23.6151 12.8973 23.7253 12.6636C23.7804 12.5467 23.822 12.4535 23.8503 12.388C23.8645 12.3553 23.8754 12.3295 23.8831 12.3111C23.8869 12.3019 23.8899 12.2945 23.8921 12.2891C23.8933 12.2864 23.8942 12.2841 23.8949 12.2824C23.8952 12.2815 23.8955 12.2807 23.8958 12.2801C23.8959 12.2798 23.8961 12.2794 23.8961 12.2792C23.8963 12.2789 23.8964 12.2785 23.2001 12ZM12 14.45C10.647 14.45 9.55005 13.3531 9.55005 12H8.05005C8.05005 14.1815 9.81853 15.95 12 15.95V14.45ZM14.4501 12C14.4501 13.3531 13.3531 14.45 12 14.45V15.95C14.1816 15.95 15.9501 14.1815 15.9501 12H14.4501ZM12 9.55C13.3531 9.55 14.4501 10.6469 14.4501 12H15.9501C15.9501 9.81847 14.1816 8.05 12 8.05V9.55ZM12 8.05C9.81853 8.05 8.05005 9.81847 8.05005 12H9.55005C9.55005 10.6469 10.647 9.55 12 9.55V8.05Z" fill="#8B8B8B"/>
</svg>
