<svg width="24" height="24" viewBox="0 0 24 24" fill="none" xmlns="http://www.w3.org/2000/svg">
<path d="M21.5999 2.3998H22.3499V1.6498H21.5999V2.3998ZM2.3999 2.3998V1.6498H1.6499V2.3998H2.3999ZM7.1999 0.799805V0.0498047H6.4499V0.799805H7.1999ZM16.7999 0.799805H17.5499V0.0498047H16.7999V0.799805ZM3.9999 23.9498H19.9999V22.4498H3.9999V23.9498ZM22.3499 21.5998V2.3998H20.8499V21.5998H22.3499ZM21.5999 1.6498H17.5999V3.1498H21.5999V1.6498ZM3.1499 21.5998V2.3998H1.6499V21.5998H3.1499ZM2.3999 3.1498H6.3999V1.6498H2.3999V3.1498ZM19.9999 23.9498C21.2978 23.9498 22.3499 22.8977 22.3499 21.5998H20.8499C20.8499 22.0692 20.4694 22.4498 19.9999 22.4498V23.9498ZM3.9999 22.4498C3.53046 22.4498 3.1499 22.0692 3.1499 21.5998H1.6499C1.6499 22.8977 2.70203 23.9498 3.9999 23.9498V22.4498ZM7.1999 1.5498H16.7999V0.0498047H7.1999V1.5498ZM16.0499 0.799805V3.9998H17.5499V0.799805H16.0499ZM15.1999 4.8498H8.7999V6.3498H15.1999V4.8498ZM7.9499 3.9998V0.799805H6.4499V3.9998H7.9499ZM8.7999 4.8498C8.33046 4.8498 7.9499 4.46925 7.9499 3.9998H6.4499C6.4499 5.29767 7.50203 6.3498 8.7999 6.3498V4.8498ZM16.0499 3.9998C16.0499 4.46925 15.6694 4.8498 15.1999 4.8498V6.3498C16.4978 6.3498 17.5499 5.29767 17.5499 3.9998H16.0499Z" fill="#8B8B8B"/>
<path d="M6.3999 9.59961H10.1333M6.3999 14.3996H17.5999H6.3999ZM13.8666 19.1996H17.5999H13.8666Z" stroke="#8B8B8B" stroke-width="1.5" stroke-linecap="round" stroke-linejoin="round"/>
</svg>
