<svg width="26" height="26" viewBox="0 0 26 26" fill="none" xmlns="http://www.w3.org/2000/svg">
<path d="M6.14286 19.8571H6.89286V19.1071H6.14286V19.8571ZM6.14286 25H5.39286C5.39286 25.2841 5.55336 25.5438 5.80745 25.6708C6.06154 25.7979 6.36559 25.7704 6.59286 25.6L6.14286 25ZM13 19.8571V19.1071H12.75L12.55 19.2571L13 19.8571ZM7.85714 7.10713C7.44293 7.10713 7.10714 7.44291 7.10714 7.85713C7.10714 8.27134 7.44293 8.60713 7.85714 8.60713V7.10713ZM18.1429 8.60713C18.5571 8.60713 18.8929 8.27134 18.8929 7.85713C18.8929 7.44291 18.5571 7.10713 18.1429 7.10713V8.60713ZM7.85714 12.25C7.44293 12.25 7.10714 12.5858 7.10714 13C7.10714 13.4142 7.44293 13.75 7.85714 13.75V12.25ZM14.7143 13.75C15.1285 13.75 15.4643 13.4142 15.4643 13C15.4643 12.5858 15.1285 12.25 14.7143 12.25V13.75ZM5.39286 19.8571V25H6.89286V19.8571H5.39286ZM6.59286 25.6L13.45 20.4571L12.55 19.2571L5.69286 24.4L6.59286 25.6ZM13 20.6071H23.2857V19.1071H13V20.6071ZM23.2857 20.6071C24.6479 20.6071 25.75 19.5051 25.75 18.1429H24.25C24.25 18.6766 23.8195 19.1071 23.2857 19.1071V20.6071ZM25.75 18.1429V2.71426H24.25V18.1429H25.75ZM25.75 2.71426C25.75 1.35202 24.6479 0.25 23.2857 0.25V1.75C23.8195 1.75 24.25 2.18048 24.25 2.71426H25.75ZM23.2857 0.25H2.71429V1.75H23.2857V0.25ZM2.71429 0.25C1.35209 0.25 0.25 1.35202 0.25 2.71426H1.75C1.75 2.18048 2.18048 1.75 2.71429 1.75V0.25ZM0.25 2.71426V18.1429H1.75V2.71426H0.25ZM0.25 18.1429C0.25 19.5051 1.35209 20.6071 2.71429 20.6071V19.1071C2.18048 19.1071 1.75 18.6766 1.75 18.1429H0.25ZM2.71429 20.6071H6.14286V19.1071H2.71429V20.6071ZM7.85714 8.60713H18.1429V7.10713H7.85714V8.60713ZM7.85714 13.75H14.7143V12.25H7.85714V13.75Z" fill="#8B8B8B"/>
</svg>
