<svg width="24" height="24" viewBox="0 0 24 24" fill="none" xmlns="http://www.w3.org/2000/svg">
<path d="M19.2 23.1998H23.2V20.7998C23.2 18.5907 21.4092 16.7998 19.2 16.7998V23.1998ZM13.6 5.59668C13.6 8.24615 11.4512 10.3935 8.80005 10.3935C6.14885 10.3935 4.00005 8.24615 4.00005 5.59668C4.00005 2.9472 6.14885 0.799805 8.80005 0.799805C11.4512 0.799805 13.6 2.9472 13.6 5.59668ZM16.8 23.1852H0.800049C0.800049 22.0491 0.800049 20.9683 0.800049 19.9896C0.800049 17.3386 2.94908 15.1904 5.60005 15.1904H12C14.651 15.1904 16.8 17.3386 16.8 19.9896C16.8 20.9683 16.8 22.0491 16.8 23.1852ZM18.4 13.5998C16.6327 13.5998 15.2 12.1671 15.2 10.3998C15.2 8.63249 16.6327 7.1998 18.4 7.1998C20.1674 7.1998 21.6 8.63249 21.6 10.3998C21.6 12.1671 20.1674 13.5998 18.4 13.5998Z" stroke="#8B8B8B" stroke-width="1.5" stroke-linecap="round"/>
</svg>
