<svg width="21" height="21" viewBox="0 0 21 21" fill="none" xmlns="http://www.w3.org/2000/svg">
<path d="M10.9812 18.0163C10.29 18.0163 9.52875 17.7713 8.7675 17.29L6.2125 15.6888C6.0375 15.5838 5.83625 15.5225 5.635 15.5225H4.375C2.2575 15.5225 1.09375 14.3588 1.09375 12.2413V8.74128C1.09375 6.62378 2.2575 5.46003 4.375 5.46003H5.62625C5.8275 5.46003 6.02875 5.39878 6.20375 5.29378L8.75875 3.69253C10.0362 2.89628 11.2787 2.74753 12.2587 3.29003C13.2387 3.83253 13.7725 4.96128 13.7725 6.47503V14.4988C13.7725 16.0038 13.23 17.1413 12.2587 17.6838C11.8737 17.9113 11.4362 18.0163 10.9812 18.0163ZM4.375 6.78128C2.9925 6.78128 2.40625 7.36753 2.40625 8.75003V12.25C2.40625 13.6325 2.9925 14.2188 4.375 14.2188H5.62625C6.08125 14.2188 6.51875 14.3413 6.90375 14.5863L9.45875 16.1875C10.2987 16.7125 11.095 16.8525 11.6287 16.555C12.1625 16.2575 12.4687 15.5138 12.4687 14.525V6.48378C12.4687 5.48628 12.1625 4.74253 11.6287 4.45378C11.095 4.15628 10.2987 4.28753 9.45875 4.82128L6.895 6.41378C6.51875 6.65878 6.0725 6.78128 5.62625 6.78128H4.375Z" fill="white"/>
<path d="M15.75 14.6562C15.61 14.6562 15.4787 14.6125 15.3562 14.525C15.0675 14.3062 15.0062 13.895 15.225 13.6062C16.5987 11.7775 16.5987 9.22249 15.225 7.39374C15.0062 7.10499 15.0675 6.69374 15.3562 6.47499C15.645 6.25624 16.0562 6.31749 16.275 6.60624C17.99 8.89875 17.99 12.1012 16.275 14.3937C16.1437 14.5687 15.9512 14.6562 15.75 14.6562Z" fill="white"/>
<path d="M17.3513 16.8437C17.2113 16.8437 17.0801 16.8 16.9576 16.7125C16.6688 16.4937 16.6076 16.0825 16.8263 15.7937C19.1626 12.6787 19.1626 8.32124 16.8263 5.20624C16.6076 4.91749 16.6688 4.50624 16.9576 4.28749C17.2463 4.06874 17.6576 4.12999 17.8763 4.41874C20.5626 7.99749 20.5626 13.0025 17.8763 16.5812C17.7538 16.7562 17.5526 16.8437 17.3513 16.8437Z" fill="white"/>
</svg>
