<svg width="21" height="21" viewBox="0 0 21 21" fill="none" xmlns="http://www.w3.org/2000/svg">
<path d="M19.25 18.5939H18.375V8.73263C18.375 8.19013 18.13 7.68263 17.7012 7.35013L16.625 6.51013L16.6075 4.36638C16.6075 3.88513 16.2137 3.50013 15.7325 3.50013H12.7487L11.5762 2.59013C10.9462 2.09138 10.0538 2.09138 9.42375 2.59013L3.29875 7.35013C2.87 7.68263 2.625 8.19013 2.625 8.72388L2.58125 18.5939H1.75C1.39125 18.5939 1.09375 18.8914 1.09375 19.2501C1.09375 19.6089 1.39125 19.9064 1.75 19.9064H19.25C19.6087 19.9064 19.9062 19.6089 19.9062 19.2501C19.9062 18.8914 19.6087 18.5939 19.25 18.5939ZM5.6875 11.1564V9.84388C5.6875 9.36263 6.08125 8.96888 6.5625 8.96888H8.3125C8.79375 8.96888 9.1875 9.36263 9.1875 9.84388V11.1564C9.1875 11.6376 8.79375 12.0314 8.3125 12.0314H6.5625C6.08125 12.0314 5.6875 11.6376 5.6875 11.1564ZM12.6875 18.5939H8.3125V16.1876C8.3125 15.4614 8.89875 14.8751 9.625 14.8751H11.375C12.1012 14.8751 12.6875 15.4614 12.6875 16.1876V18.5939ZM15.3125 11.1564C15.3125 11.6376 14.9188 12.0314 14.4375 12.0314H12.6875C12.2062 12.0314 11.8125 11.6376 11.8125 11.1564V9.84388C11.8125 9.36263 12.2062 8.96888 12.6875 8.96888H14.4375C14.9188 8.96888 15.3125 9.36263 15.3125 9.84388V11.1564Z" fill="white"/>
</svg>
