<svg width="21" height="21" viewBox="0 0 21 21" fill="none" xmlns="http://www.w3.org/2000/svg">
<path d="M7.875 1.75C5.5825 1.75 3.71875 3.61375 3.71875 5.90625C3.71875 8.155 5.4775 9.975 7.77 10.0537C7.84 10.045 7.91 10.045 7.9625 10.0537C7.98 10.0537 7.98875 10.0537 8.00625 10.0537C8.015 10.0537 8.015 10.0537 8.02375 10.0537C10.2638 9.975 12.0225 8.155 12.0313 5.90625C12.0313 3.61375 10.1675 1.75 7.875 1.75Z" fill="white"/>
<path d="M12.3201 12.3813C9.87884 10.7538 5.89759 10.7538 3.43884 12.3813C2.32759 13.125 1.71509 14.1313 1.71509 15.2075C1.71509 16.2838 2.32759 17.2813 3.43009 18.0163C4.65509 18.8388 6.26509 19.25 7.87509 19.25C9.48509 19.25 11.0951 18.8388 12.3201 18.0163C13.4226 17.2725 14.0351 16.275 14.0351 15.19C14.0263 14.1138 13.4226 13.1163 12.3201 12.3813Z" fill="white"/>
<path d="M17.4912 6.42259C17.6312 8.12009 16.4237 9.60759 14.7524 9.80884C14.7437 9.80884 14.7437 9.80884 14.7349 9.80884H14.7087C14.6562 9.80884 14.6037 9.80884 14.5599 9.82634C13.7112 9.87009 12.9324 9.59884 12.3462 9.10009C13.2474 8.29509 13.7637 7.08759 13.6587 5.77509C13.5974 5.06634 13.3524 4.41884 12.9849 3.86759C13.3174 3.70134 13.7024 3.59634 14.0962 3.56134C15.8112 3.41259 17.3424 4.69009 17.4912 6.42259Z" fill="white"/>
<path d="M19.2412 14.5164C19.1712 15.3651 18.6287 16.1001 17.7187 16.5989C16.8437 17.0801 15.7412 17.3076 14.6475 17.2814C15.2775 16.7126 15.645 16.0039 15.715 15.2514C15.8025 14.1664 15.2862 13.1251 14.2537 12.2939C13.6675 11.8301 12.985 11.4626 12.2412 11.1914C14.175 10.6314 16.6075 11.0076 18.1037 12.2151C18.9087 12.8626 19.32 13.6764 19.2412 14.5164Z" fill="white"/>
</svg>
